<svg xmlns="http://www.w3.org/2000/svg" viewBox="0 0 45.466 45.466">
  <g style="stroke-width:4.15467215">
    <path d="m-19.691-6.248 7.351-6.826L-.263-9.136l9.715-4.988 7.876 3.938 1.576 7.351L15.49 4.78.788 14.494-18.38 2.416Z" style="fill:#ef96b0;fill-opacity:1;stroke:none;stroke-width:1.09925699px;stroke-linecap:butt;stroke-linejoin:miter;stroke-opacity:1" transform="translate(17 7.712) scale(.2407)"/>
    <path d="M-45.684 109.275c-1.575 0-21.267-6.826-21.53-7.876-.262-1.05-.262-10.765 1.313-13.128 1.576-2.363 9.715-4.989 9.715-4.989l21.267 2.889s11.814-2.626 9.977-4.726c-1.838-2.1-5.777-14.703-5.514-15.754.262-1.05 2.363-12.865 2.363-12.865l-17.329-1.05-15.753 1.05s-5.513-6.038-4.988-9.189c.525-3.15 4.726-12.602 4.726-12.602s14.703-4.726 15.753-4.726c1.05 0-2.888-18.642-2.888-18.642l9.19-7.351 6.826.525 7.351 9.977 3.15 12.077 4.99 6.04 9.188 2.625 16.804-7.352 64.85-2.888 4.201-13.653L86.38.841l9.189 2.626 4.2 7.088-4.2 18.642 9.714 2.888 7.877 3.413 3.676 11.552s-3.413 6.827-4.464 7.09c-1.05.262-18.116-.526-19.954-.789-1.837-.262-15.228 2.626-15.228 2.626l.788 13.653-3.15 14.44 9.451 4.2 22.58-3.412 7.614 5.776.787 13.653-14.702 6.3-6.564.526 5.513 14.178-1.575 6.301-12.077 6.301-6.827-4.988-10.764-21.267-11.29-1.838-1.313 13.128s-6.039 3.15-7.351 3.15c-1.313 0-7.877-6.3-7.877-6.3l-5.514 6.826-8.139-1.838-4.2-4.726-4.989 6.301H12.34l-5.251-8.927-5.251 8.14s-5.776 2.1-6.039 1.05c-.262-1.05-3.15-20.217-3.15-20.217l-8.665 3.413-6.563 1.576-2.363 9.977-4.726 14.177-13.916.525-6.038-11.29z" style="fill:#fff;stroke:none;stroke-width:1.09925699px;stroke-linecap:butt;stroke-linejoin:miter;stroke-opacity:1" transform="translate(17 7.712) scale(.2407)"/>
    <path d="M21.004 24.47c.525-1.05-2.625-8.663 1.05-11.026 3.676-2.363 12.603-6.04 12.603-6.04l12.077 5.252 3.413 6.564 9.715 3.938 7.614-1.05 10.24 6.301L75.877 46l-11.815 3.938-17.854-12.602-14.965-1.05-9.715-7.352z" style="fill:#dd0674;fill-opacity:1;stroke:none;stroke-width:1.09925699px;stroke-linecap:butt;stroke-linejoin:miter;stroke-opacity:1" transform="translate(17 7.712) scale(.2407)"/>
    <path d="M8.982-15.392c-.931 0-1.838.077-1.838.234 0 .132-.685.453-1.522.712-1.448.45-3.403 1.683-4.976 3.141-.871.807-1.554.852-2.163.141-.249-.291-.609-.53-.8-.53-.19 0-.41-.166-.487-.369-.175-.455-2.98-1.825-4.641-2.267-1.636-.435-5.75-.035-6.578.64-.218.177-.775.472-1.238.654-.462.183-1.046.56-1.297.838-.252.278-.567.505-.702.505-.134 0-.681.472-1.216 1.05-1.384 1.496-1.466 1.611-1.984 2.786a26.717 26.717 0 0 1-.72 1.518c-.335.611-.324 4.624.013 4.832.146.09.266.365.267.611.003.438.98 2.584 1.646 3.613.354.548 4.091 4.375 4.272 4.375.202 0 3.335 2.158 3.485 2.401.083.135.36.245.615.245s.712.231 1.016.514c.303.283.95.7 1.438.928a36.14 36.14 0 0 1 2.21 1.18 73.1 73.1 0 0 0 2.25 1.246c.508.264 1.044.582 1.19.705.145.123.8.501 1.455.84 1.193.618 2.381.851 2.381.468 0-.113.447-.44.992-.728.546-.287 1.224-.731 1.506-.986.282-.254.622-.463.755-.463.134 0 .597-.297 1.03-.661.431-.364.94-.662 1.13-.662.189 0 .5-.188.69-.418.192-.23.731-.617 1.2-.86 1.453-.753 5.206-3.399 6.456-4.552.654-.604 1.458-1.28 1.785-1.501.328-.221.596-.555.596-.74 0-.186.177-.407.394-.49.625-.24 2.157-2.83 2.76-4.665.845-2.574.754-4.942-.272-7.12-.98-2.082-1.364-2.546-3.411-4.129-.655-.506-1.34-.92-1.522-.922-.182-.001-.33-.112-.33-.245s-.833-.5-1.85-.815c-1.017-.315-1.917-.682-2-.816-.097-.158-1.053-.237-1.985-.238zm55.814 1.198c-1.873.01-2.187.122-3.28.767a24.324 24.324 0 0 0-2.409 1.653c-.597.481-1.175.875-1.285.875-.11 0-.648-.356-1.197-.79-1.673-1.326-4.348-2.385-6.022-2.385-1.345 0-3.317.661-4.83 1.62-.219.138-.725.392-1.125.564-.4.172-.727.389-.727.482 0 .092-.394.69-.874 1.33-.98 1.305-1.51 2.84-1.504 4.368.004 1.357.65 3.743 1.17 4.317.228.252.414.596.414.767 0 .17.117.31.26.31.142 0 .33.28.416.624.153.61.981 1.283 4.219 3.433.873.58 1.899 1.265 2.28 1.522.38.258 1.094.66 1.587.894 1.611.765 2.474 1.26 3.012 1.732.29.254.976.62 1.521.812.546.193.992.436.992.542 0 .105.209.246.463.313.255.066.502.135.549.152.114.04 2.36-1.259 3.354-1.94.437-.3.986-.663 1.221-.809.235-.145 1.1-.71 1.924-1.256.822-.545 1.592-.992 1.709-.992.117 0 .493-.298.835-.661.341-.364.719-.662.838-.662.5 0 4.453-3.843 4.453-4.33 0-.146.233-.513.517-.815.594-.633 1.335-3.236 1.335-4.69 0-2.375-2-5.238-4.606-6.593-.595-.31-1.163-.693-1.263-.85-.11-.178-1.28-.294-3.042-.303a93.08 93.08 0 0 0-.905 0zM10.16-11.68c1.006.014 1.477.185 2.616.735 2.189 1.055 4.25 3.115 4.69 4.688.943 3.369-.914 7.028-5.421 10.683-1.092.885-2.066 1.609-2.165 1.609-.098 0-.367.185-.598.41-.4.393-4.718 3.162-7.594 4.87-1.573.935-1.919.976-2.777.332-.347-.26-.929-.623-1.292-.805a42.525 42.525 0 0 1-1.985-1.116A45.162 45.162 0 0 0-6.747 8.41c-1.296-.645-3.392-1.869-3.572-2.086-.073-.087-.323-.278-.555-.423-3.17-1.98-5.276-4.016-6.439-6.222-.656-1.244-.764-1.743-.757-3.49.008-1.825.095-2.175.835-3.327 2.192-3.416 7.318-5.155 10.488-3.558.437.22 1.032.518 1.323.662 1.072.53 3.25 2.473 3.995 3.565.422.618.91 1.124 1.086 1.124.175 0 .699-.554 1.166-1.232 1.225-1.78 3.134-3.562 4.627-4.319.989-.5 1.816-.68 3.48-.755.5-.022.895-.035 1.23-.03zm-47.573 9.653c-1.536.007-3.018.152-3.994.459-1.728.543-3.389 1.375-3.847 1.926-.2.242-.638.544-.971.671-.334.127-.606.404-.606.616 0 .212-.239.461-.53.554-.29.092-.529.287-.529.432 0 .145-.283.643-.63 1.106-.347.464-.718 1.14-.824 1.504-.107.364-.406 1.078-.666 1.588-.735 1.444-1.802 7.812-1.45 8.66.107.257.296 1.36.419 2.452.34 3.015.69 4.66 1.134 5.338.222.339.483 1.112.58 1.72l.176 1.106-1.287.378c-.709.208-2.122.527-3.14.708-1.019.182-2.15.45-2.514.596-.364.146-1.316.436-2.116.645-1.53.4-3.02 1.015-5.066 2.091-.677.356-1.391.652-1.588.658-.6.018-1.953 1.385-2.464 2.492-.696 1.504-1.464 5.761-1.465 8.117 0 2.304.673 6.251 1.168 6.843.182.218.483.78.668 1.247.484 1.225 2.728 3.36 4.328 4.118 1.907.903 2.02.934 4.62 1.262 2.41.304 5.357.119 11.043-.694 1.455-.208 3.718-.485 5.027-.615 2.521-.251 6.822.017 7.356.458.175.144.77.347 1.324.45 1.713.32 1.86.823 1.353 4.653-.517 3.907-.3 10.217.459 13.33.141.582.423 1.773.627 2.646a34.6 34.6 0 0 0 .914 3.117c.397 1.113.474 1.663.282 2.021-.328.613-2.596 2.138-3.179 2.138-.237 0-.544.1-.682.22-1.009.883-6.45 1.108-9.909.41a57.56 57.56 0 0 0-3.969-.628 62.347 62.347 0 0 1-4.233-.68c-3.374-.678-7.671-.794-9.496-.257-.816.24-1.69.55-1.944.686-.252.137-.597.25-.766.25-.367 0-2.578 1.753-3.14 2.49-1.53 2.008-2.327 3.375-2.636 4.52-.196.728-.482 1.485-.635 1.682-.153.197-.327 1.476-.387 2.843-.096 2.186-.018 2.764.641 4.801 1.155 3.565 3.057 6.21 5.314 7.388.327.17.926.488 1.331.704 1.26.672 4.098 1.524 5.897 1.77.946.13 2.375.418 3.175.641.8.223 1.962.53 2.58.684 1.04.257 1.124.344 1.124 1.15 0 .48-.23 1.576-.513 2.437-1.036 3.155-1.663 7.67-1.522 10.958.123 2.852.778 6.572 1.211 6.876.106.074.356.552.555 1.061.2.51.504 1.105.677 1.323.76.96 3.592 3.704 3.822 3.704.14 0 .942.316 1.782.7 1.421.651 1.8.702 5.366.72 3.629.019 3.936-.021 5.682-.733 2.919-1.189 4.695-2.682 5.804-4.88.626-1.242 1.936-5.708 2.533-8.639.178-.873.415-1.825.528-2.116.112-.292.385-1.304.606-2.25.5-2.142 1.365-4.422 1.902-5.015.224-.248.407-.566.407-.708 0-.825 3.32-3.02 5.292-3.497 2.889-.7 5.127-1.38 5.47-1.666.8-.663.96.16.903 4.63-.035 2.837.043 4.414.226 4.527.154.095.28.59.28 1.099 0 1.915 1.315 5.915 2.565 7.805.586.885.815 1.015 2.065 1.171 1.671.21 3.15.006 5.252-.72 1.587-.548 1.754-.656 3.347-2.148.98-.917 1.317-1.376 2.035-2.765.244-.473.543-.86.664-.86.12 0 .501.625.848 1.389.993 2.193 2.713 3.665 5.027 4.302 2.706.745 3.25.755 5.535.106 2.332-.664 3.455-1.454 4.303-3.029.271-.504.638-.916.814-.916.176 0 .705.536 1.175 1.19.47.655.976 1.191 1.124 1.191.148 0 .515.219.815.486.64.57 1.565.92 3.647 1.378 1.37.302 1.729.275 3.836-.281 2.395-.633 2.485-.68 4.044-2.16.983-.932 1.505-1.644 1.758-2.4.245-.727 1.129-.563 1.429.265.881 2.435 2.226 3.768 4.593 4.555 2.184.727 3.817.634 5.978-.342 1.344-.606 3.969-2.824 3.969-3.352 0-.126.149-.385.331-.577.182-.193.55-1.005.818-1.805.267-.8.552-1.634.632-1.852.228-.626.822-6.525.857-8.514.035-2.039 3.894-1.426 6.581 1.044.75.69 1.364 1.387 1.364 1.551 0 .164.19.454.42.646.404.335 1.062 1.63 3.145 6.199.531 1.164 1.078 2.323 1.214 2.576.137.252.248.595.248.76 0 .265.364 1.175 1.735 4.337.19.437.596 1.38.903 2.097.945 2.205 4.068 6.501 4.726 6.501.125 0 .44.236.701.524.59.652 3.053 1.627 4.635 1.834 2.321.304 7.131-.724 7.939-1.697.18-.218.48-.396.666-.396.68 0 6.741-5.205 6.741-5.788 0-.128.17-.373.376-.544.66-.548 1.008-3.613.696-6.124-.334-2.691-.896-4.42-2.832-8.712-.36-.801-.678-2.03-.705-2.731-.047-1.234-.019-1.284.878-1.598.509-.178 1.819-.477 2.91-.664 1.091-.187 2.699-.582 3.572-.879.873-.296 1.97-.597 2.438-.668.468-.07.988-.295 1.157-.498.168-.203.426-.369.572-.369.45 0 4.269-1.933 4.813-2.436.282-.26.59-.474.686-.474.202 0 1.081-.723 2.306-1.897.803-.77.863-.948.895-2.705.064-3.495-.059-6.371-.334-7.834-.378-2.015-1.518-5.502-2.162-6.614-1.829-3.16-2.048-3.395-3.594-3.865-.817-.249-1.598-.552-1.737-.675-.436-.387-7.272-.246-9.274.192a80.439 80.439 0 0 1-3.44.664c-.872.143-2.54.489-3.703.768-1.164.28-3.427.586-5.027.681-4.779.285-7.326-.468-9.521-2.815l-1.158-1.238.662-2.346c.876-3.11 1.118-4.294 1.425-6.977.61-5.322.685-6.57.479-8.07-.12-.873-.291-2.659-.38-3.968-.188-2.722-.124-2.834 2.407-4.24 1.243-.692 1.517-.736 4.516-.734 2.97.003 5.333.318 6.597.882.701.313 4.654 1.29 6.482 1.601 2.701.461 7.387.594 8.962.254 1.747-.378 4.247-1.535 4.743-2.195.191-.255.49-.468.664-.474.442-.015 3.072-2.099 3.675-2.912.503-.678 1.256-4.66 1.266-6.693.007-1.539-1.023-6.267-1.461-6.705-.213-.212-.386-.509-.386-.66 0-.15-.358-.724-.794-1.275-.437-.552-.798-1.105-.804-1.23-.006-.124-.616-.702-1.356-1.284a77.362 77.362 0 0 1-1.881-1.521c-.296-.255-.633-.463-.75-.463-.117 0-.651-.298-1.187-.662-.536-.364-1.158-.661-1.38-.661-.223 0-.593-.163-.823-.362-.23-.199-1.133-.578-2.006-.843-.873-.265-1.647-.556-1.72-.645-.072-.09-1.196-.367-2.496-.616-1.3-.248-2.576-.643-2.834-.877-.433-.392-.439-.502-.07-1.382.773-1.852 1.586-5.493 1.974-8.846.346-2.985.21-7.543-.29-9.713-.886-3.842-2.801-5.959-6.507-7.191-2.252-.75-2.494-.776-6.18-.672-4.027.114-5.446.475-7.505 1.911-1.128.787-3.74 3.37-3.943 3.902-.098.255-.284.463-.414.463-.203 0-1.251 1.99-2.58 4.895-.385.843-1.574 4.469-2.362 7.206-.56 1.94-1.157 2.628-1.925 2.217-.692-.37-3.823-.975-7.112-1.373-2.113-.255-3.115-.257-4.676-.005-1.862.3-2.057.285-3.131-.255-.63-.317-1.324-.717-1.542-.89-.219-.172-.988-.462-1.71-.644-1.805-.455-1.924-.602-1.799-2.217.099-1.271.031-1.483-.771-2.416-1.58-1.838-3.163-3.343-3.516-3.343-.19 0-.54-.298-.78-.663-.362-.552-1.374-1.352-2.907-2.294-.16-.099-1.108-.49-2.107-.871-1.592-.607-2.205-.692-4.969-.69-2.147.002-3.424.123-4.005.38-.468.206-1.36.568-1.982.802-.62.234-1.624.737-2.228 1.119-1.145.723-4.343 3.811-4.9 4.73-1.857 3.072-2.725 5.031-3.233 7.296-.319 1.42-.545 2.173-1.095 3.653-.275.739-.325.757-1.654.595-3.985-.485-12.825.008-13.806.77-.145.113-.92.384-1.72.603-.8.218-2.11.764-2.91 1.213-4.312 2.419-5.76 2.811-7.5 2.035-.459-.205-1.45-.436-2.203-.514-1.547-.161-3.887-1.244-4.797-2.221-1.51-1.622-2.715-4.59-3.624-8.932-.244-1.164-.553-2.39-.685-2.724a3.937 3.937 0 0 1-.24-1.207c0-.33-.231-1.076-.513-1.659-.282-.583-.596-1.41-.7-1.836a5.522 5.522 0 0 0-.62-1.437 20.033 20.033 0 0 1-.902-1.588c-.934-1.85-1.268-2.38-1.496-2.38-.127 0-.299-.211-.38-.469-.15-.472-2.423-2.88-3.727-3.948-.783-.641-3.496-1.012-6.057-1zm3.573 5.437c.696.008 1.21.033 1.375.074 1.387.348 4.837 6.182 5.734 9.695.167.655.465 1.548.663 1.984.198.437.437 1.27.531 1.852.095.582.327 1.475.517 1.985.19.509.488 1.402.664 1.984 1.332 4.414 3.868 8.243 6.033 9.112.473.19.86.435.86.546 0 .11.52.332 1.154.492.635.16 1.317.487 1.517.728.321.387.197.58-1.079 1.66-1.605 1.359-6.883 6.59-6.883 6.822 0 .081-.417.716-.926 1.41-.51.694-.926 1.394-.926 1.557 0 .162-.111.295-.247.295s-.328.268-.428.595c-.1.328-.438.953-.752 1.39-.315.436-.983 1.654-1.485 2.706-.502 1.052-1.071 1.974-1.264 2.048-.194.074-.732-.023-1.197-.217-.464-.193-1.712-.563-2.771-.821-2.034-.497-4.966-.462-8.922.107a135.21 135.21 0 0 1-4.498.534c-1.455.148-3.122.386-3.704.529-1.58.388-5.583.27-7.59-.224-2.325-.572-3.716-1.621-4.6-3.468-.65-1.358-.688-1.65-.602-4.551.06-2.015.208-3.216.423-3.43.182-.182.33-.728.33-1.213 0-.486.191-1.175.425-1.532.533-.812 3.812-2.507 4.852-2.507.428 0 .84-.1.915-.223.126-.203 2.512-.89 4.127-1.19.364-.067 1.316-.3 2.117-.518a31.75 31.75 0 0 1 2.636-.588c.649-.106 1.363-.285 1.587-.399.224-.113.883-.332 1.465-.487l1.64-.436c.675-.18 1.06-1.106.636-1.53-.16-.16-.291-.496-.291-.746s-.298-1.047-.662-1.771c-.364-.725-.661-1.514-.661-1.755 0-.24-.169-.764-.374-1.161-.361-.698-.994-3.242-1.493-5.997-1.13-6.245.231-10.374 4.116-12.482 1.188-.646 1.653-.73 4.57-.827.892-.03 1.771-.04 2.468-.032zM89.058 4.63c2.851.022 5.747.825 6.321 2.133.144.327.352.595.463.595.111 0 .202.163.202.362 0 .2.248 1.122.552 2.05.482 1.475.534 2.108.408 4.996-.166 3.806-1.156 7.847-2.836 11.573-.278.617-.506 1.22-.506 1.34 0 .119-.246.727-.547 1.35-.302.624-.491 1.282-.422 1.462.179.467 2.692 1.62 4.409 2.023.8.189 1.643.499 1.873.69.23.191.825.35 1.323.352 1.379.006 6.99 1.499 8.313 2.211.437.235.932.428 1.1.429.168 0 1.073.746 2.01 1.655 2.226 2.158 2.706 3.462 2.706 7.342 0 3.606-.707 5.157-2.773 6.082-.364.162-.99.476-1.394.696-.402.22-1.355.518-2.116.664-2.069.395-4.754.518-5.354.245-.29-.132-1.064-.252-1.72-.264-.654-.013-2.083-.27-3.174-.57-1.092-.3-2.59-.653-3.328-.785-.74-.132-2.109-.485-3.043-.783-1.3-.416-2.453-.55-4.912-.57-3.044-.024-3.322.02-5.246.821-2.656 1.106-2.816.988-2.62-1.921.08-1.188.308-2.695.505-3.35.358-1.19 1.53-8.059 1.857-10.893.17-1.463-.22-4.771-.702-5.974-.559-1.394-.909-2.08-1.289-2.519-.599-.693-1.994-2.024-2.54-2.424-.437-.32-.454-.548-.196-2.697.85-7.084 4.161-13.403 8.103-15.458 1.167-.608 2.862-.876 4.573-.863ZM35.189 9.892c2.044-.01 2.417.074 4.08.903 1.008.502 2.416 1.451 3.129 2.11 1.05.97 1.325 1.41 1.443 2.307.293 2.23-.494 3.204-3.134 3.883-1.707.439-3.314.075-4.443-1.008-.969-.928-1.95-.883-2.665.122-.754 1.059-1.552 3.368-1.386 4.006.156.595 1.307 1.244 2.955 1.667 1.717.44 1.81.758.99 3.388-.387 1.241-.704 2.676-.704 3.189 0 .512-.072 1.12-.16 1.35-.12.31-.512.414-1.522.398-.748-.011-1.48-.058-1.625-.104-.146-.045-.98-.288-1.852-.54-5.471-1.573-7.903-5.322-7.012-10.808.25-1.546.622-2.593 1.426-4.02 2.57-4.56 6.038-6.824 10.48-6.843zm13.887 12.232c2.052.012 2.921.434 4.301 2.09 1.293 1.551 1.43 1.968 1.423 4.317-.007 1.95.1 1.69-2.333 5.747-.32.536-.56.595-2.401.592-1.72-.003-2.306-.129-3.694-.794-.908-.434-1.759-.79-1.891-.79-.133 0-.61-.42-1.062-.935-.738-.841-.821-1.109-.821-2.654 0-1.715.71-4.407 1.476-5.598.658-1.022 3.1-1.986 5.002-1.975zm14.596 2.228c.45-.015 1.083.067 1.997.19 2.944.395 4.505 1.146 6.422 3.087 1.078 1.091 1.452 1.721 1.93 3.25.325 1.042.591 2.53.591 3.308 0 1.666-1.022 4.983-2.025 6.572-1.082 1.713-3.099 4.164-3.43 4.167-.161 0-.578.221-.925.49-.347.268-1.218.684-1.935.926-2.73.917-5.934.188-8.455-1.923-.986-.826-3.073-3.816-3.073-4.403 0-.809 1.69-2.117 3.24-2.507 1.364-.344 2.945-.006 3.21.685.081.211.287.384.458.384.17 0 .457.201.637.448.308.42.372.42 1.039-.017.39-.256.924-.965 1.186-1.576.262-.612.67-1.273.909-1.471.624-.518.533-1.698-.193-2.48-.344-.372-1.306-.997-2.136-1.39-.83-.393-1.577-.892-1.66-1.11-.084-.217-.006-.948.172-1.625.179-.677.465-1.97.636-2.873.301-1.59.413-2.098 1.405-2.132zm-52.53 3.381c1.786.024 3.533.161 3.94.394.363.208.912.382 1.22.387.306.005.996.307 1.532.671.537.364 1.087.661 1.225.661.274 0 .267-.005 3.299 2.534 1.164.975 2.211 1.935 2.328 2.133.116.199.378.36.582.36.204 0 .466.172.584.381.236.423 4.47 3.324 4.849 3.324.132 0 .928.325 1.769.723 1.525.722 1.544.724 7.008.678l5.479-.045.598.975c.329.537.959 1.466 1.4 2.065.441.599 1.04 1.417 1.332 1.819.29.401.588.808.661.904.567.747 6.597 5.316 7.016 5.316.062 0 .742.287 1.51.638 1.392.636 1.801.754 4.307 1.238 3.416.662 5.298.594 9.505-.339 1.213-.27 1.337-.248 1.786.307.265.328.483.856.483 1.175 0 .319.1.693.224.831.442.493 1.367 4.66 1.921 8.653.257 1.848.252 2.939-.023 5.4-.483 4.339-1.825 9.86-2.916 11.995-.26.51-.813 1.635-1.229 2.502-.415.867-.844 1.7-.95 1.852-.108.152-.614.843-1.125 1.536-.512.692-.93 1.326-.93 1.408 0 .625-3.838 4.884-6.353 7.05-.799.687-1.651 1.423-1.895 1.633a6.88 6.88 0 0 1-1.041.704c-.33.176-.838.542-1.129.813-.291.272-.658.494-.815.494-.157 0-.723.297-1.259.661-.535.364-1.161.662-1.39.662-.868 0-1.003 1.249-.77 7.143.122 3.13.214 6.778.203 8.11-.02 2.598-.516 5.496-1.028 6.007-.172.173-.456.58-.63.904-.174.325-.43.59-.57.59-.141 0-.494.238-.785.529-.4.4-.882.53-1.974.53-1.231 0-1.547-.108-2.138-.728l-.694-.728.088-4.366.088-4.365-4.498-.076c-2.474-.041-4.754-.012-5.067.065-.87.214-1.15 1.47-1.15 5.15 0 3.329-.004 3.345-.78 4.194-.693.76-.936.853-2.206.853-1.154 0-1.608-.14-2.366-.728-1.404-1.089-1.796-2.475-1.794-6.35v-3.24h-3.38c-2.533 0-3.518.096-3.93.385-.66.462-1.061 1.858-1.427 4.969-.316 2.687-.399 2.955-1.262 4.104-.587.781-.775.86-2.05.86-1.968 0-2.89-.79-3.153-2.706-.17-1.232-.207-5.23-.063-6.687.048-.48-.157-.545-2.238-.703-1.26-.097-2.69-.358-3.175-.58-.487-.224-1.44-.485-2.117-.58-1.204-.17-1.24-.154-1.628.713-.511 1.14-.692 1.972-.98 4.487-.128 1.128-.345 2.268-.48 2.532-.137.265-.406.839-.599 1.275-.193.437-.69 1.121-1.106 1.521-.585.565-1.01.728-1.896.728-.64 0-1.273-.158-1.44-.36-.164-.197-.547-1.298-.852-2.446-.5-1.887-.546-2.677-.47-8.174.047-3.347.088-7.197.092-8.555l.009-2.469-1.707-1.5c-6.074-5.338-12.975-12.982-15.542-17.212-1.05-1.73-3.031-5.946-3.371-7.173-.101-.364-.3-.9-.442-1.192-.615-1.266-1.48-6.74-1.53-9.688-.071-4.076.715-9.063 1.745-11.08.186-.365.34-.781.34-.927.004-.45 2.551-5.28 3.184-6.035.799-.956 1.844-2.394 1.844-2.539 0-.091.536-.725 1.191-1.409.655-.683 1.19-1.315 1.19-1.405 0-.22 4.171-4.126 5.16-4.832.146-.104.795-.604 1.442-1.112 1.21-.95 1.337-1.034 3.086-2.051.565-.33 1.786-1.075 2.713-1.657.927-.582 1.968-1.13 2.315-1.216.347-.087.63-.245.63-.352 0-.106.506-.352 1.125-.545.618-.193 1.65-.582 2.292-.863.642-.28 1.832-.606 2.646-.724.813-.118 1.813-.344 2.223-.503.566-.22 2.392-.31 4.179-.286zM6.628 53.488c-4.812-.08-10.758 1.387-13.553 3.478-.39.291-1.204.887-1.81 1.323-1.334.96-3.781 4.145-4.168 5.424-.79 2.612-.938 3.602-1.045 7.004-.102 3.245-.046 3.941.464 5.689.548 1.875 1.57 4.144 2.268 5.034.356.454 2.356 2.471 3.146 3.174.639.567 4.399 2.382 4.936 2.382.21 0 .495.112.634.249.138.136.787.293 1.442.35 2.219.191 6.74.158 8.07-.06 1.554-.256 4.427-1.28 5.556-1.982.436-.271 1.27-.794 1.852-1.162 2.693-1.7 5.05-5.038 6.1-8.64.538-1.843.658-9.301.18-11.112-1.022-3.863-2.286-6.035-4.547-7.805a30.241 30.241 0 0 1-1.38-1.149c-.294-.268-1.089-.672-1.767-.897-.678-.226-1.36-.509-1.514-.63-.156-.12-1.453-.362-2.884-.538a18.87 18.87 0 0 0-1.98-.132Zm40.865.437c-.874.001-2.578.24-3.787.53-1.21.29-2.423.527-2.695.527-1.049 0-4.628 1.68-6.61 3.101-.772.556-2.383 2.245-2.385 2.502 0 .099-.155.337-.343.53-.548.56-1.497 2.768-1.95 4.532-.507 1.98-.593 8.318-.144 10.58.588 2.958 2.146 5.921 4.038 7.682 2.547 2.37 3.47 2.942 6.732 4.175 1.654.625 2.243.703 5.518.732 3.214.029 3.931-.049 5.82-.628C57.92 86.278 62 82.424 63.455 77.075c.636-2.34.784-7.565.302-10.621-.22-1.395-1.04-3.457-2.202-5.54-.487-.875-3.136-3.55-3.513-3.55-.189 0-.47-.239-.627-.53-.155-.291-.427-.527-.604-.525-.177.002-.917-.288-1.645-.646-1.728-.848-5.668-1.74-7.672-1.738zm-49.37 2.646c.925-.023 1.958.226 3.059.768 2.187 1.076 3.35 2.486 3.521 4.266.144 1.497-.09 3.001-.546 3.5a5.642 5.642 0 0 0-.605.855c-.157.278-.602.741-.989 1.03-.45.336-1.253.563-2.229.63-1.269.087-1.747-.014-2.848-.6-.727-.388-1.627-.993-1.999-1.345-.371-.351-.803-.639-.96-.639-.592 0-.952-1.568-.77-3.347.331-3.228 2-5.059 4.365-5.118zm43.766.885c1.01-.038 3.474.81 3.961 1.398.176.212.541.61.812.884.337.34.531 1.022.619 2.17.118 1.55.064 1.766-.732 2.953-.472.705-1.048 1.34-1.28 1.411-.232.071-.912.358-1.51.637-.834.39-1.676.508-3.618.508H37.61l-.734-1.5c-1.018-2.08-.968-3.74.168-5.566.68-1.095 1.127-1.479 2.37-2.037.841-.377 1.873-.755 2.293-.839.053-.01.114-.017.182-.02zm-68.476 28.79c.546-.027 1.021.145 1.205.552.148.327.413.833.589 1.125.175.29.73 1.243 1.23 2.116.502.873 1.044 1.707 1.206 1.852.16.146.803.945 1.427 1.775 1.306 1.74 4.674 5.237 5.043 5.237.138 0 .346.167.462.372.214.376 2.896 2.274 3.215 2.274.358 0 1.626 1.268 1.618 1.618-.011.51-1 1.56-2.246 2.386-.579.384-2.362 1.087-3.963 1.562-1.6.474-3.195 1.083-3.542 1.353-.347.269-.747.489-.89.489-.278 0-2.174 1.586-2.195 1.836-.007.082-.428.59-.936 1.13-.507.54-1.084 1.429-1.281 1.975-.198.546-.497 1.13-.664 1.297-.168.168-.47 1.095-.67 2.06-.202.966-.454 1.756-.56 1.756-.105 0-.254.566-.33 1.257-.262 2.384-.715 4.679-.975 4.939-.143.143-.26.615-.26 1.048 0 .88-.394 2.296-.953 3.427-.203.412-.37.865-.37 1.007 0 .378-1.63 2.345-1.942 2.345-.146 0-.479.193-.74.43-.26.236-1.163.59-2.005.789-2.486.585-5.11.396-6.955-.5-.9-.438-2.516-2.124-3.038-3.17-.963-1.927-1.545-5.462-1.362-8.265.188-2.873 1.184-7.632 1.771-8.466.103-.146.273-.682.379-1.191.105-.51.431-1.402.725-1.984l.765-1.518c.417-.829.244-1.215-.678-1.52-.5-.164-.946-.398-.992-.518-.104-.272-3.549-1.23-6.698-1.864-5.38-1.082-8.302-2.086-9.666-3.32-.236-.213-.57-.388-.74-.388-.17 0-.31-.115-.31-.255s-.244-.482-.543-.76c-.298-.278-.832-1.325-1.185-2.325-.908-2.574-.913-5.865-.013-7.831.877-1.916 2.055-2.912 4.287-3.625.789-.252 2.105-.308 4.762-.203 3.694.147 4.525.232 6.715.691 3.374.707 10.192 1.608 12.171 1.608 1.65 0 2.882-.186 4.63-.698 1.31-.383 2.441-.777 2.514-.875.467-.628 1.286-.995 1.988-1.03zm52.108.469c-.127.015-.192.086-.238.207-.232.602-.173 3.13.102 4.37.137.62.39 1.783.564 2.584.172.8.421 1.663.553 1.918.38.733 3.465.64 4.851-.147.907-.515 1.047-.713.98-1.384-.075-.767-.219-1.167-1.083-3.02-.879-1.88-2.403-3.316-4.376-4.118-.757-.307-1.141-.436-1.353-.41zm-2.846.546c-.464 0-4.428 4.272-4.81 5.184-.442 1.059-.528 2.939-.161 3.518.128.203.691.449 1.252.547.561.099 1.139.151 1.284.117.146-.034.57-.128.943-.208.398-.087 1.026-.633 1.523-1.325.82-1.141.847-1.267.863-3.95.017-2.635-.27-3.883-.894-3.883zm54.012.192c.3-.012.633.111 1.014.364.411.272.926.611 1.145.754 2.33 1.52 5.353 2.011 9.963 1.618 1.816-.156 3.502-.383 3.747-.505.245-.122 1.338-.37 2.43-.551a58.982 58.982 0 0 0 3.571-.718c4.062-.993 10.546-.86 11.718.24 2.917 2.737 4.006 13.432 1.456 14.313-.26.09-1.01.5-1.664.913-.655.412-1.786.969-2.514 1.238-.728.269-1.458.591-1.624.716-.165.125-1.058.39-1.984.59-.926.2-2.398.556-3.271.79-.873.235-2.54.549-3.704.698-1.165.148-2.653.355-3.308.458l-1.19.189-.079 1.957c-.085 2.118.306 4.042 1.43 7.039 1.168 3.114 1.993 6 2.231 7.805.413 3.125.353 3.449-.878 4.785-1.776 1.929-4.166 3.814-5.797 4.57-2.028.942-3.878.939-5.506-.008-1.26-.734-3.3-3.037-4.058-4.584-.25-.51-.569-1.105-.708-1.323-.395-.62-2.552-5.348-2.775-6.085-.11-.364-.436-1.198-.722-1.853a99.052 99.052 0 0 1-.79-1.852 9.873 9.873 0 0 0-.504-1.058 6.346 6.346 0 0 1-.388-.794c-.347-.903-1.864-3.78-2.298-4.358l-1.191-1.582c-2.29-3.044-4.295-4.458-6.973-4.92-2.347-.405-2.667-.602-2.347-1.444.346-.91 3.062-4.032 5.387-6.193 4.986-4.633 7.662-7.651 8.853-9.986.41-.804.826-1.202 1.328-1.222z" style="fill:#000;stroke-width:4.15467215" transform="translate(17 7.712) scale(.2407)"/>
  </g>
</svg>
