<svg xmlns="http://www.w3.org/2000/svg" width="120" height="120" viewBox="0 0 120 120">
  <g id="LINE_LOGO" data-name="LINE LOGO" transform="translate(-360.945 -238.537)">
    <g id="FULL_COLOR_ICON" data-name="FULL COLOR ICON">
      <rect id="Rectangle_1" data-name="Rectangle 1" width="120" height="120" rx="26" transform="translate(360.945 238.537)" fill="#00b900"/>
      <g id="TYPE_A" data-name="TYPE A">
        <g id="Group_2" data-name="Group 2">
          <path id="Path_1" data-name="Path 1" d="M464.441,293.261c0-19.551-19.6-35.456-43.691-35.456s-43.691,15.9-43.691,35.456c0,17.526,15.544,32.205,36.54,34.98,1.422.307,3.359.938,3.849,2.155a8.981,8.981,0,0,1,.141,3.95s-.512,3.083-.623,3.74c-.191,1.1-.878,4.32,3.784,2.355s25.161-14.815,34.328-25.366h0c6.332-6.944,9.365-13.99,9.365-21.814" fill="#fff"/>
          <g id="Group_1" data-name="Group 1">
            <path id="Path_2" data-name="Path 2" d="M411.873,283.813h-3.065a.851.851,0,0,0-.851.85V303.7a.85.85,0,0,0,.851.849h3.065a.85.85,0,0,0,.851-.849V284.663a.851.851,0,0,0-.851-.85" fill="#00b900"/>
            <path id="Path_3" data-name="Path 3" d="M432.967,283.813H429.9a.85.85,0,0,0-.851.85v11.31l-8.725-11.782a1.082,1.082,0,0,0-.066-.086l-.006-.006c-.016-.018-.033-.035-.051-.052l-.016-.014a.325.325,0,0,0-.045-.038l-.022-.018-.044-.03-.026-.015-.045-.026-.027-.013-.049-.02-.028-.01-.05-.017-.03-.007-.049-.011-.036-.005c-.014,0-.029,0-.044-.006l-.045,0-.029,0h-3.064a.851.851,0,0,0-.851.85V303.7a.85.85,0,0,0,.851.849h3.064a.851.851,0,0,0,.852-.849V292.393l8.734,11.8a.844.844,0,0,0,.216.21l.009.007.053.032.024.013.04.02c.014.005.027.012.042.017l.025.01.058.018.013,0a.819.819,0,0,0,.218.029h3.064a.85.85,0,0,0,.851-.849V284.663a.851.851,0,0,0-.851-.85" fill="#00b900"/>
            <path id="Path_4" data-name="Path 4" d="M404.486,299.782h-8.328V284.663a.85.85,0,0,0-.85-.85h-3.065a.851.851,0,0,0-.851.85V303.7a.842.842,0,0,0,.238.587l.012.014.012.011a.844.844,0,0,0,.588.237h12.244a.85.85,0,0,0,.849-.851v-3.065a.851.851,0,0,0-.849-.851" fill="#00b900"/>
            <path id="Path_5" data-name="Path 5" d="M449.891,288.58a.851.851,0,0,0,.85-.851v-3.064a.851.851,0,0,0-.85-.852H437.647a.845.845,0,0,0-.59.24l-.01.009-.014.015a.851.851,0,0,0-.236.586V303.7h0a.846.846,0,0,0,.238.588l.012.013.012.011a.847.847,0,0,0,.588.238h12.244a.851.851,0,0,0,.85-.851v-3.065a.851.851,0,0,0-.85-.851h-8.327v-3.218h8.327a.851.851,0,0,0,.85-.852v-3.064a.852.852,0,0,0-.85-.852h-8.327V288.58Z" fill="#00b900"/>
          </g>
        </g>
      </g>
    </g>
  </g>
</svg>
