<?xml version="1.0" encoding="UTF-8" standalone="no"?>
<!-- Created with Inkscape (http://www.inkscape.org/) -->

<svg
   width="12.91107mm"
   height="15.42415mm"
   viewBox="0 0 12.91107 15.42415"
   version="1.1"
   id="svg908"
   xmlns="http://www.w3.org/2000/svg"
   xmlns:svg="http://www.w3.org/2000/svg">
  <defs
     id="defs905">
    <linearGradient
       x1="2.6667933e-05"
       y1="27.044249"
       x2="53.335892"
       y2="27.044249"
       id="linearGradient-1"
       gradientTransform="scale(0.91491466,1.0929981)"
       gradientUnits="userSpaceOnUse">
      <stop
         stop-color="#FF5500"
         offset="0%"
         id="stop6" />
      <stop
         stop-color="#FF5500"
         offset="40.9877232%"
         id="stop8" />
      <stop
         stop-color="#FF2000"
         offset="58.1981215%"
         id="stop10" />
      <stop
         stop-color="#FF2000"
         offset="100%"
         id="stop12" />
    </linearGradient>
    <linearGradient
       x1="0.021484375"
       y1="0.50705516"
       x2="1"
       y2="0.50705516"
       id="linearGradient-2"
       gradientUnits="userSpaceOnUse">
      <stop
         stop-color="#FF452A"
         offset="0%"
         id="stop15" />
      <stop
         stop-color="#FF2000"
         offset="100%"
         id="stop17" />
    </linearGradient>
  </defs>
  <g
     id="layer1"
     transform="translate(-104.59285,-100.28793)">
    <g
       id="Build-Icons/Release"
       transform="matrix(0.26458333,0,0,0.26458333,103.39938,100.28792)">
      <g
         id="Logo"
         transform="translate(4.510718)">
        <path
           d="m 47.089866,13.984517 1.341938,-3.355831 c 0,0 -1.707921,-1.8643501 -3.781826,-3.9772805 C 42.576073,4.5384751 38.184274,5.7813753 38.184274,5.7813753 L 33.182503,2.4858005e-5 H 24.398906 15.615309 L 10.613538,5.7813753 c 0,0 -4.3917988,-1.2429002 -6.4657037,0.8700302 C 2.0739293,8.7643359 0.36600762,10.628686 0.36600762,10.628686 L 1.7079461,13.984517 2.4398882e-5,18.956118 c 0,0 5.023119801118,19.38365 5.611742801118,21.750754 1.1589468,4.660876 1.9519105,6.463081 5.2457598,8.824592 3.293849,2.36151 9.271575,6.463081 10.24753,7.084531 0.975955,0.62145 2.195899,1.680028 3.293849,1.680028 1.09795,0 2.317894,-1.058578 3.293849,-1.680028 0.975955,-0.62145 6.953681,-4.723021 10.24753,-7.084531 3.293849,-2.361511 4.086813,-4.163716 5.24576,-8.824592 0.588501,-2.367104 5.611743,-21.750754 5.611743,-21.750754 z"
           id="Head"
           fill="url(#linearGradient-1)"
           style="fill:url(#linearGradient-1)" />
        <path
           d="m 24.398882,36.278592 c 0.334386,0 2.476852,0.770599 4.196119,1.676921 1.719145,0.906448 2.965074,1.547411 3.363386,1.801336 0.39819,0.254048 0.155299,0.732938 -0.20739,0.994196 -0.362812,0.261257 -5.23783,4.107288 -5.710925,4.53236 -0.473216,0.425196 -1.168462,1.12731 -1.64119,1.12731 -0.472729,0 -1.168097,-0.702114 -1.641191,-1.12731 -0.473216,-0.425072 -5.348113,-4.271103 -5.710924,-4.53236 -0.362812,-0.261258 -0.605581,-0.740148 -0.207391,-0.994196 0.398312,-0.253925 1.644241,-0.894888 3.363508,-1.801336 1.719023,-0.906322 3.861611,-1.676921 4.195998,-1.676921 z m 0.02616,-27.3930492 c 0.164187,0.00464 1.089242,0.050432 2.413753,0.5002432 1.463933,0.4971601 3.04986,1.11861 3.781827,1.11861 0.731966,0 6.160717,-1.056465 6.160717,-1.056465 0,0 6.433498,7.923489 6.433498,9.616941 0,1.693451 -0.809311,2.140398 -1.623014,3.020744 -0.813703,0.880346 -4.367522,4.725134 -4.823903,5.218814 -0.456381,0.493804 -1.406473,1.242403 -0.847617,2.589831 0.558856,1.347428 1.383294,3.062009 0.466507,4.801075 -0.91691,1.739066 -2.487588,2.899811 -3.494042,2.707907 -1.006454,-0.192028 -3.370096,-1.450465 -4.239306,-2.025306 -0.86921,-0.574841 -3.624088,-2.889619 -3.624088,-3.775309 0,-0.885567 2.847716,-2.475733 3.373755,-2.837044 0.526284,-0.361187 2.925914,-1.759574 2.975078,-2.308439 0.04904,-0.548989 0.03038,-0.709945 -0.677801,-2.066197 -0.708177,-1.356377 -1.983507,-3.166289 -1.771237,-4.370535 0.212271,-1.204122 2.269096,-1.830295 3.736933,-2.395069 1.467593,-0.564649 4.293593,-1.631182 4.646523,-1.796985 0.353174,-0.165927 0.261922,-0.323899 -0.807603,-0.427184 -1.069281,-0.103285 -4.104014,-0.513691 -5.472181,-0.12516 -1.368167,0.38853 -3.70558,0.979653 -3.894916,1.293113 -0.189335,0.313459 -0.356345,0.324024 -0.161886,1.405347 0.194337,1.081323 1.195423,6.269935 1.292531,7.191545 0.09723,0.921611 0.287296,1.530881 -0.688049,1.758083 -0.975467,0.227202 -2.61739,0.621698 -3.181614,0.621698 -0.564224,0 -2.206269,-0.394496 -3.181614,-0.621698 -0.975467,-0.227202 -0.7854,-0.836472 -0.688171,-1.758083 0.09723,-0.92161 1.098194,-6.110222 1.292653,-7.191545 0.194337,-1.081323 0.02733,-1.091888 -0.161886,-1.405347 -0.189336,-0.31346 -2.526871,-0.904583 -3.895038,-1.293113 -1.368167,-0.388531 -4.402778,0.02188 -5.472181,0.12516 -1.069403,0.103285 -1.160655,0.261257 -0.807603,0.427184 0.353052,0.165803 3.179052,1.232336 4.646645,1.796985 1.467715,0.564774 3.524662,1.190947 3.736933,2.395069 0.21227,1.204246 -1.063182,3.014158 -1.771237,4.370535 -0.708178,1.356252 -0.726965,1.517208 -0.677801,2.066197 0.04904,0.548865 2.448794,1.947252 2.974956,2.308439 0.526161,0.361311 3.373755,1.951477 3.373755,2.837044 0,0.88569 -2.754756,3.200468 -3.623966,3.775309 -0.86921,0.574841 -3.232852,1.833278 -4.239306,2.025306 -1.006453,0.191904 -2.577132,-0.968841 -3.494041,-2.707907 -0.916789,-1.739066 -0.09235,-3.453647 0.466384,-4.801075 C 13.436245,28.546833 12.486274,27.798234 12.029771,27.30443 11.573512,26.81075 8.0195708,22.965962 7.2058681,22.085616 6.3921654,21.20527 5.5829765,20.758323 5.5829765,19.064872 c 0,-1.693452 6.4334975,-9.616941 6.4334975,-9.616941 0,0 5.428751,1.056465 6.160717,1.056465 0.731967,0 2.317894,-0.6214499 3.781827,-1.11861 1.324511,-0.4498115 2.249566,-0.4956013 2.413753,-0.5002432 z"
           id="Face"
           fill="#ffffff" />
        <mask
           id="mask-4"
           fill="#ffffff">
          <path
             d="M 38.184274,5.7813753 33.182503,2.4858005e-5 H 24.398906 15.615309 L 10.613538,5.7813753 c 0,0 -4.3917988,-1.2429002 -6.4657037,0.8700302 0,0 5.8557317,-0.5385487 7.8686397,2.7965255 0,0 5.428751,1.056465 6.160717,1.056465 0.731967,0 2.317894,-0.6214499 3.781827,-1.11861 1.463933,-0.4971601 2.439888,-0.5007645 2.439888,-0.5007645 0,0 0.975955,0.0036 2.439888,0.5007645 1.463933,0.4971601 3.04986,1.11861 3.781827,1.11861 0.731966,0 6.160717,-1.056465 6.160717,-1.056465 2.012908,-3.3350742 7.86864,-2.7965255 7.86864,-2.7965255 C 42.576073,4.5384751 38.184274,5.7813753 38.184274,5.7813753"
             id="use35" />
        </mask>
        <path
           d="M 38.184274,5.7813753 33.182503,2.4858005e-5 H 24.398906 15.615309 L 10.613538,5.7813753 c 0,0 -4.3917988,-1.2429002 -6.4657037,0.8700302 0,0 5.8557317,-0.5385487 7.8686397,2.7965255 0,0 5.428751,1.056465 6.160717,1.056465 0.731967,0 2.317894,-0.6214499 3.781827,-1.11861 1.463933,-0.4971601 2.439888,-0.5007645 2.439888,-0.5007645 0,0 0.975955,0.0036 2.439888,0.5007645 1.463933,0.4971601 3.04986,1.11861 3.781827,1.11861 0.731966,0 6.160717,-1.056465 6.160717,-1.056465 2.012908,-3.3350742 7.86864,-2.7965255 7.86864,-2.7965255 C 42.576073,4.5384751 38.184274,5.7813753 38.184274,5.7813753"
           id="Top-Head"
           style="fill:url(#linearGradient-2)" />
      </g>
    </g>
  </g>
</svg>
